<svg width="73" height="68" viewBox="0 0 73 68" fill="none" xmlns="http://www.w3.org/2000/svg">
<g filter="url(#filter0_d)">
<path fill-rule="evenodd" clip-rule="evenodd" d="M31.8084 47.1268L42.4582 56.2697L41.5707 39.1423L41.2749 37.7137L42.754 36.8565L60.4689 27.428H43.3457L41.2749 27.0565L40.6832 24.8565L39.7958 10.8565L30.3293 26.2851L29.7376 27.428H27.9627L10.3325 28.0511L21.1316 36.8565L22.7617 38.3286L22.0461 39.7137L12.3022 55.7008L28.5543 46.8411L30.3293 45.6982L31.8084 47.1268Z" fill="#D50000"/>
<path fill-rule="evenodd" clip-rule="evenodd" d="M68.4903 24.8571H61.0946H43.345L42.4575 8.57143L42.1617 2L38.6118 7.71429L27.962 24.8571H9.32489H4L7.2541 28L7.54993 28.2857L19.0872 38.2857L8.73324 55.1429L4.59165 62L11.6915 57.7143L29.4411 47.1429L41.2742 57.4286L45.12 60.5714L44.8241 55.7143L43.9367 38.8571L58.1364 30.5714L68.4903 24.8571ZM41.2745 37.7143L42.7537 36.8571L59.0242 28H43.6412H40.9787L40.6829 25.4286L39.7954 11.4286L30.3289 26.5714L29.4415 28H27.9623H11.1002L21.4541 36.8571L23.2291 38.2857L22.0458 40.2857L13.171 54.5714L28.554 45.4286L30.3289 44.2857L31.8081 45.7143L42.162 54.8571L41.2745 39.4286V37.7143Z" fill="white"/>
</g>
<defs>
<filter id="filter0_d" x="0" y="0" width="72.4903" height="68" filterUnits="userSpaceOnUse" color-interpolation-filters="sRGB">
<feFlood flood-opacity="0" result="BackgroundImageFix"/>
<feColorMatrix in="SourceAlpha" type="matrix" values="0 0 0 0 0 0 0 0 0 0 0 0 0 0 0 0 0 0 127 0"/>
<feOffset dy="2"/>
<feGaussianBlur stdDeviation="2"/>
<feColorMatrix type="matrix" values="0 0 0 0 0 0 0 0 0 0 0 0 0 0 0 0 0 0 0.5 0"/>
<feBlend mode="normal" in2="BackgroundImageFix" result="effect1_dropShadow"/>
<feBlend mode="normal" in="SourceGraphic" in2="effect1_dropShadow" result="shape"/>
</filter>
</defs>
</svg>
