<svg width="24" height="24" viewBox="0 0 24 24" fill="none" xmlns="http://www.w3.org/2000/svg">
<path d="M22.2271 3.81811C20.5101 3.81811 19.1134 2.42128 19.1134 0.704437V0H4.88647V0.704437C4.88647 2.42137 3.48964 3.81811 1.7728 3.81811H1.06836V8.5027C1.06836 11.869 2.08241 15.1105 4.001 17.8766C5.91959 20.6426 8.60023 22.7282 11.7531 23.9077L11.9999 24L12.2468 23.9077C15.3997 22.7282 18.0804 20.6427 19.9989 17.8766C21.9175 15.1105 22.9315 11.869 22.9315 8.5027V3.81811H22.2271ZM21.5227 8.5027H21.5226C21.5226 11.5807 20.5954 14.5444 18.8412 17.0736C17.1373 19.5302 14.7758 21.3998 11.9999 22.4932C9.224 21.3997 6.86248 19.5302 5.15862 17.0736C3.40442 14.5445 2.47723 11.5807 2.47723 8.5027V5.17223C4.40802 4.86895 5.93731 3.33966 6.24059 1.40887H17.7593C18.0626 3.33966 19.5919 4.86895 21.5227 5.17223V8.5027Z" fill="#757C84"/>
<path d="M15.1431 6.61816L10.4801 11.2812L8.85633 9.6574L5.86768 12.6461L10.4801 17.2586L18.1318 9.60687L15.1431 6.61816ZM7.86014 12.6462L8.85638 11.65L10.4802 13.2738L15.1432 8.61073L16.1394 9.60697L10.4802 15.2662L7.86014 12.6462Z" fill="#757C84"/>
</svg>
