<svg width="24" height="24" viewBox="0 0 24 24" fill="none" xmlns="http://www.w3.org/2000/svg">
<path fill-rule="evenodd" clip-rule="evenodd" d="M7.5 21.75C7.5 21.3358 7.83579 21 8.25 21H15.75C16.1642 21 16.5 21.3358 16.5 21.75C16.5 22.1642 16.1642 22.5 15.75 22.5H8.25C7.83579 22.5 7.5 22.1642 7.5 21.75Z" fill="white"/>
<path fill-rule="evenodd" clip-rule="evenodd" d="M12 15C12.4142 15 12.75 15.3358 12.75 15.75V21.75C12.75 22.1642 12.4142 22.5 12 22.5C11.5858 22.5 11.25 22.1642 11.25 21.75V15.75C11.25 15.3358 11.5858 15 12 15Z" fill="white"/>
<path fill-rule="evenodd" clip-rule="evenodd" d="M17.2443 1.5C17.6421 1.5 18.0236 1.65804 18.305 1.93934C18.5862 2.22057 18.7442 2.60199 18.7443 2.99971C18.7443 2.9998 18.7443 2.9999 18.7443 3H17.9943L18.7443 2.99882C18.7443 2.99911 18.7443 2.99941 18.7443 2.99971C18.7462 4.19036 18.7499 8.12642 18.7499 10.5C18.7499 12.3412 17.5695 13.8489 16.2425 14.853C14.9172 15.8559 13.2616 16.5 11.998 16.5C10.7344 16.5 9.07931 15.8559 7.75437 14.8529C6.42778 13.8487 5.24805 12.341 5.24805 10.5C5.24805 9.78186 5.24957 8.26716 5.25109 6.75346L5.25109 6.75276C5.25262 5.2388 5.25414 3.72597 5.25414 3.00984L5.25414 3.0075C5.25538 2.61049 5.41397 2.23016 5.69514 1.94987C5.97618 1.6697 6.35679 1.51233 6.75361 1.51219L6.75327 1.51219L6.75414 2.26219L6.75414 1.51219L17.2443 1.5ZM17.2443 3L6.75414 3.01219C6.75414 3.72998 6.75262 5.24141 6.75109 6.75271L6.75109 6.75497C6.74957 8.26917 6.74805 9.78283 6.74805 10.5C6.74805 11.6721 7.51363 12.7894 8.65969 13.6569C9.8074 14.5257 11.1523 15 11.998 15C12.8438 15 14.1892 14.5257 15.3374 13.6568C16.484 12.7892 17.2499 11.6719 17.2499 10.5C17.2499 8.12667 17.2462 4.19004 17.2443 3.00118V3Z" fill="white"/>
<path fill-rule="evenodd" clip-rule="evenodd" d="M1.5 4.5C1.5 4.08579 1.83579 3.75 2.25 3.75H6C6.41421 3.75 6.75 4.08579 6.75 4.5C6.75 4.91421 6.41421 5.25 6 5.25H3C3 6.40413 3.35361 7.56912 3.93078 8.42701C4.51071 9.28902 5.2442 9.75 6 9.75C6.41421 9.75 6.75 10.0858 6.75 10.5C6.75 10.9142 6.41421 11.25 6 11.25C4.57846 11.25 3.43695 10.3802 2.68622 9.26431C1.93272 8.14432 1.5 6.68431 1.5 5.25V4.5Z" fill="white"/>
<path fill-rule="evenodd" clip-rule="evenodd" d="M17.25 4.5C17.25 4.08579 17.5858 3.75 18 3.75H21.75C22.1642 3.75 22.5 4.08579 22.5 4.5V5.25C22.5 6.68431 22.0673 8.14432 21.3138 9.26431C20.5631 10.3802 19.4215 11.25 18 11.25C17.5858 11.25 17.25 10.9142 17.25 10.5C17.25 10.0858 17.5858 9.75 18 9.75C18.7558 9.75 19.4893 9.28902 20.0692 8.42701C20.6464 7.56912 21 6.40413 21 5.25H18C17.5858 5.25 17.25 4.91421 17.25 4.5Z" fill="white"/>
</svg>
