<svg width="24" height="24" viewBox="0 0 24 24" fill="none" xmlns="http://www.w3.org/2000/svg">
<path d="M21.5161 2.60338C21.467 2.60139 21.4179 2.60106 21.3688 2.60244H19.5182V1.01206C19.5183 0.375912 18.911 0 18.2749 0H16.5689C15.9327 0 15.4701 0.375912 15.4701 1.01206V2.60239H8.5303V1.01206C8.5303 0.375912 8.06767 0 7.43151 0H5.72546C5.08937 0 4.48211 0.375912 4.48211 1.01206V2.60239H2.63155C1.45024 2.56945 0.465901 3.50043 0.432969 4.68169C0.431586 4.73073 0.431918 4.77988 0.43391 4.82891V21.5421C0.43391 22.8144 1.35919 23.9999 2.63149 23.9999H21.3689C22.6412 23.9999 23.5665 22.8144 23.5665 21.5421V4.82891C23.6148 3.64815 22.6968 2.65175 21.5161 2.60338ZM16.5689 1.15663H18.3616V4.33733H16.5689V1.15663ZM5.72552 1.15663H7.37373V4.33733H5.72552V1.15663ZM22.4098 21.5421C22.4098 22.1783 22.005 22.8433 21.3689 22.8433H2.63155C1.9954 22.8433 1.59059 22.1783 1.59059 21.5421V9.25302H22.4098V21.5421ZM22.4098 4.82891V8.09639H1.59054V4.82891C1.54156 4.28818 1.94022 3.8101 2.48095 3.76112C2.53098 3.75658 2.58135 3.75591 2.63149 3.75907H4.48211V4.39522C4.48211 5.03137 5.08931 5.49401 5.72546 5.49401H7.43151C8.02217 5.51023 8.51409 5.04449 8.5303 4.45383C8.53086 4.43429 8.53086 4.41476 8.5303 4.39522V3.75901H15.4701V4.39516C15.4539 4.98582 15.9196 5.47774 16.5103 5.49395C16.5298 5.49451 16.5493 5.49451 16.5689 5.49395H18.2749C18.9111 5.49395 19.5183 5.03131 19.5183 4.39516V3.75901H21.3689C21.9108 3.72486 22.3777 4.13648 22.4119 4.67837C22.415 4.72851 22.4144 4.77888 22.4098 4.82891Z" fill="#757C84"/>
<path d="M8.79079 17.1469L8.27031 20.0385C8.24972 20.1625 8.27009 20.2899 8.32837 20.4013C8.47642 20.6843 8.82587 20.7938 9.10886 20.6457L11.7112 19.2867L14.3136 20.6457L14.5739 20.7035C14.6993 20.7058 14.8218 20.6649 14.9208 20.5879C15.0937 20.4616 15.1826 20.2503 15.1522 20.0384L14.6317 17.1469L16.7426 15.1228C16.8936 14.9596 16.9484 14.7294 16.8871 14.5156C16.8092 14.318 16.6338 14.1755 16.4245 14.1397L13.5329 13.7059L12.2317 11.0746C12.175 10.9575 12.0805 10.8629 11.9633 10.8062C11.6759 10.667 11.33 10.7872 11.1908 11.0746L9.88958 13.7059L6.99801 14.1397C6.78869 14.1754 6.61324 14.318 6.53537 14.5156C6.4741 14.7294 6.52895 14.9596 6.67993 15.1228L8.79079 17.1469ZM10.3812 14.8048C10.5628 14.7776 10.7166 14.6567 10.786 14.4867L11.7112 12.6361L12.6365 14.4867C12.7059 14.6567 12.8597 14.7776 13.0413 14.8048L15.0943 15.0939L13.6196 16.5108C13.4823 16.6468 13.4178 16.84 13.4461 17.0313L13.7931 19.0843L11.9714 18.1012L11.7112 18.0433L11.451 18.1012L9.62928 19.0843L9.97625 17.0313C10.0046 16.84 9.94011 16.6468 9.80274 16.5108L8.32803 15.0939L10.3812 14.8048Z" fill="#757C84"/>
</svg>
