<svg width="30" height="30" viewBox="0 0 30 30" fill="none" xmlns="http://www.w3.org/2000/svg">
<path d="M17.2881 7.91362L16.8721 7.81018V7.60328L17.2881 7.91362Z" fill="white"/>
<path fill-rule="evenodd" clip-rule="evenodd" d="M16.8385 29.9998L27.999 13.9676L24.9428 12.0084L24.7024 12.335C24.3246 12.89 23.7065 13.2819 23.0197 13.4125C22.2986 13.5431 21.6118 13.4125 21.028 13.0533C20.4442 12.6941 20.0321 12.1064 19.8948 11.4533C19.7574 10.8003 19.8948 10.1146 20.2725 9.55952L20.4442 9.233L18.8646 8.22078L18.6242 8.05752L18.1091 7.73099L17.3192 7.24121L15.1902 10.3105L6.15869 23.2735L9.28365 25.2326L9.52403 24.9061C9.90177 24.351 10.5199 23.9592 11.2067 23.8285C11.8935 23.6979 12.6146 23.8285 13.1984 24.1877C13.7822 24.5469 14.1943 25.1346 14.3317 25.7877C14.469 26.4407 14.3317 27.1264 13.9539 27.6815L13.7135 28.0407L16.8385 29.9998ZM23.8795 17.9512L23.3988 18.6369L22.2312 17.8859L22.712 17.2002L23.8795 17.9512ZM21.5098 17.4611L21.9906 16.7754L20.823 16.0244L20.3422 16.7101L21.5098 17.4611ZM20.135 15.5674L19.6542 16.2531L18.4867 15.5021L18.9674 14.8164L20.135 15.5674ZM17.7672 15.0773L18.248 14.3916L17.0804 13.6406L16.5997 14.3263L17.7672 15.0773ZM15.1895 12.4658L16.3571 13.2168L15.8763 13.9025L14.7087 13.1515L15.1895 12.4658Z" fill="white"/>
<path fill-rule="evenodd" clip-rule="evenodd" d="M9.4788 16.7531L17.3022 5.63932L18.7153 6.66165L19.6803 3.26487L16.0615 2.30849L15.9581 2.70423C15.7858 3.33082 15.3378 3.89146 14.7174 4.22124C14.097 4.55103 13.4077 4.61698 12.7185 4.45209C12.0292 4.2872 11.4433 3.85848 11.0986 3.26487C10.754 2.70423 10.6851 2.01169 10.8574 1.35212L10.9608 0.956375L7.342 0L2 18.6988L5.61877 19.6552L5.72217 19.2594C6.13574 17.9403 7.54878 17.1158 8.96183 17.4786H8.99629L9.4788 16.7531ZM8.13544 6.79389L8.34223 6.00241L6.96365 5.63965L6.7224 6.43113L8.13544 6.79389ZM12.4769 7.94819L12.6837 7.15671L11.3051 6.79395L11.0639 7.58543L12.4769 7.94819ZM10.5473 6.59518L9.16874 6.23242L8.92749 7.0239L10.3061 7.38667L10.5473 6.59518ZM13.3043 8.1782L13.5455 7.38672L14.9241 7.74948L14.6829 8.54097L13.3043 8.1782Z" fill="white"/>
</svg>
