<svg width="30" height="30" viewBox="0 0 30 30" fill="none" xmlns="http://www.w3.org/2000/svg">
<path d="M25.4973 8.29304C24.8991 9.16804 24.1759 9.91357 23.3276 10.5296C23.3366 10.6546 23.341 10.8421 23.341 11.0921C23.341 12.2529 23.1714 13.4136 22.8321 14.5743C22.4928 15.7261 21.975 16.8332 21.2785 17.8957C20.591 18.9582 19.7696 19.9002 18.8142 20.7216C17.8589 21.5341 16.7071 22.1859 15.3589 22.677C14.0107 23.1591 12.5687 23.4002 11.033 23.4002C8.61335 23.4002 6.39907 22.7529 4.39014 21.4582C4.70264 21.4939 5.05085 21.5118 5.43478 21.5118C7.44371 21.5118 9.23389 20.8957 10.8053 19.6636C9.86782 19.6457 9.02853 19.36 8.28746 18.8064C7.54639 18.2439 7.03746 17.5296 6.76067 16.6636C7.05532 16.7082 7.32764 16.7305 7.57764 16.7305C7.96157 16.7305 8.34103 16.6814 8.71603 16.5832C7.71603 16.3779 6.88567 15.8823 6.22496 15.0966C5.57317 14.302 5.24728 13.3823 5.24728 12.3377V12.2841C5.85442 12.6234 6.50621 12.8064 7.20264 12.8332C6.61335 12.4404 6.1446 11.927 5.79639 11.293C5.44817 10.6591 5.27407 9.97161 5.27407 9.23054C5.27407 8.44482 5.47049 7.71715 5.86335 7.0475C6.94371 8.37786 8.25621 9.44482 9.80085 10.2484C11.3544 11.043 13.0151 11.485 14.783 11.5743C14.7116 11.235 14.6759 10.9046 14.6759 10.5832C14.6759 9.38679 15.0955 8.36893 15.9348 7.52965C16.783 6.68143 17.8053 6.25732 19.0017 6.25732C20.2517 6.25732 21.3053 6.71268 22.1625 7.6234C23.1357 7.4359 24.0509 7.08768 24.908 6.57875C24.5776 7.60554 23.9437 8.40018 23.0062 8.96268C23.8366 8.8734 24.6669 8.65018 25.4973 8.29304Z" fill="white"/>
</svg>
