<svg width="30" height="30" viewBox="0 0 30 30" fill="none" xmlns="http://www.w3.org/2000/svg">
<path d="M27.3418 8.34917C27.5182 7.76313 27.3418 7.33337 26.5075 7.33337H23.7436C23.0404 7.33337 22.719 7.70516 22.5426 8.1135C22.5426 8.1135 21.1373 11.5402 19.1461 13.7621C18.5033 14.4087 18.2097 14.6128 17.8593 14.6128C17.6841 14.6128 17.4296 14.4087 17.4296 13.8226V8.34917C17.4296 7.64593 17.2267 7.33337 16.6406 7.33337H12.2977C11.8591 7.33337 11.5944 7.65853 11.5944 7.96856C11.5944 8.634 12.59 8.78775 12.6921 10.6631V14.7313C12.6921 15.6223 12.5321 15.7849 12.1792 15.7849C11.2428 15.7849 8.96418 12.3456 7.61189 8.4084C7.34849 7.64341 7.08257 7.33463 6.3768 7.33463H3.61424C2.82404 7.33463 2.6665 7.70642 2.6665 8.11476C2.6665 8.84825 3.6029 12.4779 7.02838 17.2783C9.31203 20.5564 12.527 22.3334 15.4559 22.3334C17.2115 22.3334 17.4283 21.9389 17.4283 21.2583V18.7806C17.4283 17.9917 17.5959 17.8329 18.1517 17.8329C18.5601 17.8329 19.2633 18.0396 20.9029 19.6187C22.7757 21.4915 23.0858 22.3321 24.1381 22.3321H26.9007C27.6896 22.3321 28.0841 21.9376 27.8572 21.1588C27.6089 20.3837 26.7141 19.2557 25.5269 17.9211C24.8817 17.1599 23.9176 16.3407 23.6239 15.9311C23.2143 15.403 23.3328 15.1699 23.6239 14.701C23.6252 14.7023 26.9914 9.96108 27.3418 8.34917Z" fill="white"/>
</svg>
