<svg id="winner-cup" width="16" height="16" viewBox="0 0 16 16" xmlns="http://www.w3.org/2000/svg">
<path d="M15.2 0.8H12.8V0H3.2V0.8H0.8C0.32 0.8 0 1.12 0 1.6V3.52C0 5.36 1.36 6.88 3.2 7.12V7.2C3.2 9.52 4.8 11.44 6.96 11.92L6.80528 12.6052C6.5683 13.6547 5.63591 14.4 4.56 14.4C4.24 14.4 3.92 14.64 3.84 14.96L3.2 16H12.8L12.16 14.96C12.08 14.64 11.76 14.4 11.44 14.4C10.3641 14.4 9.4317 13.6547 9.19472 12.6052L9.04 11.92C11.2 11.44 12.8 9.52 12.8 7.2V7.12C14.64 6.88 16 5.36 16 3.52V1.6C16 1.12 15.68 0.8 15.2 0.8ZM3.2 5.52C2.32 5.28 1.6 4.48 1.6 3.52V2.4H3.2V5.52ZM9.6 8L8 7.12L6.4 8L6.8 6.4L5.6 4.8H7.28L8 3.2L8.72 4.8H10.4L9.2 6.4L9.6 8ZM14.4 3.52C14.4 4.48 13.68 5.36 12.8 5.52V2.4H14.4V3.52Z"/>
</svg>
